<?xml version="1.0" encoding="utf-8"?>
<svg viewBox="-1.3097 -1.3122 42.6194 42.5343" width="42.6194" height="42.5343" xmlns="http://www.w3.org/2000/svg">
    <circle cx="19.99" cy="20.15" r="17.04" fill="#484c89"/>
    <path fill="#fff" d="M 18.09 12.85 L 20.13 12.85 L 19.54 15.91 L 21.39 15.91 C 22.39 15.92 23.16 16.16 23.65 16.59 C 24.14 17.01 24.3 17.82 24.09 19.04 L 23.09 24.4 L 21.02 24.4 L 21.97 19.28 C 22.07 18.75 22.04 18.35 21.89 18.15 C 21.73 17.91 21.39 17.8 20.86 17.8 L 19.2 17.79 L 18 24.4 L 15.96 24.4 L 18.09 12.85 Z" style=""/>
    <path fill="#fff" fill-rule="evenodd" clip-rule="evenodd" d="M 8.7 15.91 L 12.69 15.91 C 13.85 15.92 14.69 16.28 15.22 17 C 15.75 17.72 15.92 18.71 15.74 19.94 C 15.66 20.54 15.53 21.09 15.28 21.64 C 15.05 22.18 14.74 22.66 14.34 23.11 C 13.84 23.67 13.29 24.02 12.74 24.17 C 12.18 24.32 11.6 24.4 11 24.4 L 9.21 24.4 L 8.65 27.46 L 6.58 27.46 L 8.7 15.91 Z M 9.54 22.58 L 10.45 17.76 L 10.75 17.76 C 10.85 17.76 10.96 17.76 11.08 17.75 C 11.87 17.73 12.53 17.81 13.05 17.99 C 13.59 18.17 13.76 18.81 13.59 19.93 C 13.38 21.28 12.94 22.05 12.32 22.3 C 11.68 22.5 10.89 22.61 9.94 22.59 L 9.74 22.59 C 9.67 22.59 9.62 22.58 9.54 22.58 Z M 30.26 15.91 L 26.27 15.91 L 24.16 27.46 L 26.24 27.46 L 26.79 24.4 L 28.57 24.4 C 29.17 24.4 29.75 24.32 30.32 24.17 C 30.88 24.02 31.41 23.67 31.9 23.11 C 32.31 22.66 32.62 22.18 32.85 21.64 C 33.09 21.09 33.24 20.54 33.31 19.94 C 33.49 18.71 33.31 17.72 32.79 17 C 32.27 16.28 31.42 15.92 30.26 15.91 Z M 28.02 17.76 L 27.14 22.58 C 27.19 22.58 27.26 22.59 27.31 22.59 L 27.51 22.59 C 28.46 22.61 29.25 22.5 29.89 22.3 C 30.51 22.05 30.95 21.28 31.16 19.93 C 31.34 18.81 31.16 18.17 30.62 17.99 C 30.11 17.81 29.44 17.73 28.65 17.75 C 28.54 17.76 28.42 17.76 28.32 17.76 L 28.02 17.76 Z" style=""/>
    <path fill="#8892BF" d="M 19.28 1.56 C 19.17 2.67 19.73 3.34 20.84 3.44 C 25.39 3.89 29.51 5.67 32.29 9 C 37.4 15.12 37.18 23.68 32.73 29.57 L 30.95 27.46 C 30.4 26.79 29.06 27.02 28.95 28.13 L 26.84 36.24 C 26.51 37.02 27.29 38.03 28.17 37.8 L 36.51 37.14 C 37.62 37.25 38.07 35.8 37.29 34.92 L 35.18 32.47 C 41.52 25.68 41.62 14.56 35.4 7.23 C 31.84 2.89 27.17 0.56 21.5 0 C 20.61 0.22 19.73 1 19.39 1.78 L 19.28 1.56 Z M 20.61 38.14 C 20.72 37.02 20.17 36.36 19.05 36.24 C 14.27 36.14 10.16 33.8 7.38 30.35 C 2.27 24.24 2.38 15.67 6.94 9.78 L 8.72 11.9 C 9.5 12.79 10.61 12.34 11.05 11.57 L 13.16 3.56 C 13.49 2.78 12.71 1.78 11.83 2 L 3.49 2.67 C 2.38 2.56 1.94 4 2.72 4.9 L 4.82 7.33 C -1.52 14.23 -1.62 25.24 4.6 32.69 C 8.16 37.02 13.16 39.14 18.5 39.91 C 19.39 39.7 20.28 38.92 20.61 38.14 Z" style="transform-origin: 20px 19.955px;" transform="matrix(0.997690021992, -0.067910000682, 0.067910000682, 0.997690021992, 3.8936e-8, 1.87819e-7)"/>
</svg>
